<?xml version="1.0" encoding="UTF-8"?>
<svg width="22px" height="22px" viewBox="0 0 22 22" version="1.1" xmlns="http://www.w3.org/2000/svg" xmlns:xlink="http://www.w3.org/1999/xlink">
    <title>QQ</title>
    <g id="操作指南" stroke="none" stroke-width="1" fill="none" fill-rule="evenodd" opacity="0.600000024">
        <g id="1、首页操作指南入口" transform="translate(-873.000000, -2026.000000)" fill="#32C5FF">
            <g id="编组-19" transform="translate(0.000000, 1973.000000)">
                <g id="编组-8" transform="translate(120.000000, 40.000000)">
                    <g id="编组-4" transform="translate(753.000000, 13.000000)">
                        <path d="M11.7333333,10.0569997 L22,10.0569997 L22,0 L11.7333333,0 L11.7333333,10.0569997 Z M13.4094583,8.380884 L20.3237528,8.380884 L20.3237528,1.67623791 L13.4094583,1.67623791 L13.4094583,8.380884 Z M0,10.0569997 L10.0570861,10.0569997 L10.0570861,0 L0,0 L0,10.0569997 Z M1.67624722,8.380884 L8.38093056,8.380884 L8.38093056,1.67623791 L1.67624722,1.67623791 L1.67624722,8.380884 Z M15.2951944,6.70473775 L18.6475972,6.70473775 L18.6475972,3.3523536 L15.2951944,3.3523536 L15.2951944,6.70473775 Z M3.35240278,6.70473775 L6.70480556,6.70473775 L6.70480556,3.3523536 L3.35240278,3.3523536 L3.35240278,6.70473775 Z M20.3237528,11.7332681 L20.3237528,13.4095061 L18.6475972,13.4095061 L18.6475972,11.7332681 L16.97135,11.7332681 L16.97135,13.4095061 L18.6475972,13.4095061 L18.6475972,15.2951095 L20.3237528,15.2951095 L20.3237528,16.9713474 L22,16.9713474 L22,11.7332681 L20.3237528,11.7332681 Z M0,21.9998778 L10.0570861,21.9998778 L10.0570861,11.7332376 L0,11.7332376 L0,21.9998778 Z M1.67624722,20.3237315 L8.38093056,20.3237315 L8.38093056,13.4093838 L1.67624722,13.4093838 L1.67624722,20.3237315 Z M11.7333333,11.7333904 L11.7333333,22 L15.2951944,22 L15.2951944,20.3237315 L13.4095806,20.3237315 L13.4095806,18.6476158 L15.2951944,18.6476158 L15.2951944,16.9713474 L16.9714722,16.9713474 L16.9714722,20.3237315 L18.6477194,20.3237315 L18.6477194,21.9998778 L22,21.9998778 L22,20.3237315 L20.323875,20.3237315 L20.323875,18.6474936 L18.6475972,18.6474936 L18.6475972,15.2951095 L15.2951944,15.2951095 L15.2951944,16.9713474 L13.4095806,16.9713474 L13.4095806,13.4095061 L15.2951944,13.4095061 L15.2951944,11.7333904 L11.7333333,11.7333904 Z M3.35240278,18.6474936 L6.70480556,18.6474936 L6.70480556,15.2951095 L3.35240278,15.2951095 L3.35240278,18.6474936 Z" id="QQ"></path>
                    </g>
                </g>
            </g>
        </g>
    </g>
</svg>