<?xml version="1.0" encoding="UTF-8"?>
<svg width="39px" height="39px" viewBox="0 0 39 39" version="1.1" xmlns="http://www.w3.org/2000/svg" xmlns:xlink="http://www.w3.org/1999/xlink">
    <title>角标</title>
    <g id="操作指南" stroke="none" stroke-width="1" fill="none" fill-rule="evenodd">
        <g id="1、首页操作指南入口" transform="translate(-120.000000, -770.000000)">
            <g id="角标" transform="translate(120.000000, 770.000000)">
                <path d="M1,1 L31,1 C35.418278,1 39,4.581722 39,9 L39,39 L39,39 L1,1 Z" id="矩形" fill="#FAAD14" transform="translate(20.000000, 20.000000) rotate(-90.000000) translate(-20.000000, -20.000000) "></path>
                <path d="M2.5,18.98 L2.5,16.84 L6.47,16.84 L6.47,17.98 C6.47,18.22 6.34,18.34 6.08,18.34 C5.75,18.34 5.39,18.32 5.01,18.3 L5.19,18.96 L6.31,18.96 C6.87,18.94 7.15,18.69 7.15,18.2 L7.15,12.8 L2.51,12.8 C2.75,12.43 2.96,12.04 3.16,11.64 L8.43,11.64 L8.43,10.94 L3.46,10.94 C3.6,10.59 3.72,10.23 3.84,9.86 L3.11,9.77 C2.99,10.16 2.84,10.55 2.67,10.94 L-0.31,10.94 L-0.31,11.64 L2.34,11.64 C1.65,12.93 0.68,14.07 -0.58,15.07 L-0.11,15.68 C0.61,15.1 1.26,14.45 1.82,13.75 L1.82,18.98 L2.5,18.98 Z M6.47,14.52 L2.5,14.52 L2.5,13.43 L6.47,13.43 L6.47,14.52 Z M6.47,16.21 L2.5,16.21 L2.5,15.15 L6.47,15.15 L6.47,16.21 Z M9.76,14.7 C11.4,14.43 12.81,13.99 14.01,13.37 C15.17,13.94 16.57,14.35 18.23,14.59 L18.56,13.92 C17.08,13.73 15.8,13.41 14.72,12.96 C15.53,12.45 16.22,11.85 16.79,11.15 L16.79,10.59 L12.89,10.59 C13.05,10.37 13.2,10.13 13.36,9.88 L12.66,9.72 C11.97,10.78 11.1,11.65 10.04,12.31 L10.5,12.86 C10.96,12.56 11.4,12.21 11.81,11.82 C12.24,12.25 12.74,12.64 13.32,12.99 C12.22,13.49 10.93,13.84 9.45,14.05 L9.76,14.7 Z M14.02,12.64 C13.32,12.28 12.73,11.86 12.25,11.38 L12.38,11.23 L15.89,11.23 C15.36,11.76 14.74,12.23 14.02,12.64 Z M13.47,18.97 C14.09,18.97 14.4,18.66 14.4,18.06 L14.4,15.84 L17.72,15.84 L17.72,15.15 L14.4,15.15 L14.4,14.17 L13.66,14.17 L13.66,15.15 L10.25,15.15 L10.25,15.84 L13.66,15.84 L13.66,17.88 C13.66,18.18 13.51,18.33 13.22,18.33 C12.9,18.33 12.55,18.31 12.19,18.28 L12.35,18.97 L13.47,18.97 Z M17.65,18.74 L18.17,18.21 C17.3,17.41 16.54,16.81 15.9,16.41 L15.43,16.85 C16.18,17.39 16.92,18.02 17.65,18.74 Z M10.12,18.76 C11.02,18.23 11.78,17.61 12.4,16.9 L11.9,16.46 C11.3,17.11 10.55,17.67 9.66,18.15 L10.12,18.76 Z M21.31,19.01 L21.31,12.33 C21.71,11.62 22.04,10.87 22.3,10.08 L21.62,9.77 C21.14,11.33 20.38,12.72 19.32,13.92 L19.55,14.69 C19.93,14.29 20.28,13.87 20.6,13.43 L20.6,19.01 L21.31,19.01 Z M25.87,18.96 L25.87,15.74 L28.54,15.74 L28.54,15.05 L25.87,15.05 L25.87,12.64 L28.17,12.64 L28.17,11.94 L25.87,11.94 L25.87,9.86 L25.15,9.86 L25.15,11.94 L23.68,11.94 C23.82,11.5 23.93,11.02 24.01,10.52 L23.3,10.43 C23.08,11.76 22.67,12.89 22.06,13.81 L22.52,14.41 C22.89,13.89 23.2,13.3 23.45,12.64 L25.15,12.64 L25.15,15.05 L22.21,15.05 L22.21,15.74 L25.15,15.74 L25.15,18.96 L25.87,18.96 Z" id="有条件" fill="#FFFFFF" fill-rule="nonzero" transform="translate(13.980000, 14.365000) rotate(-45.000000) translate(-13.980000, -14.365000) "></path>
            </g>
        </g>
    </g>
</svg>